<?xml version="1.0" encoding="UTF-8" standalone="no"?>
<!DOCTYPE svg PUBLIC "-//W3C//DTD SVG 1.1//EN"
 "http://www.w3.org/Graphics/SVG/1.1/DTD/svg11.dtd">
<!-- Generated by graphviz version 2.38.0 (20140413.2041)
 -->
<!-- Title: controllers_diagram Pages: 1 -->
<svg width="548pt" height="497pt"
 viewBox="0.00 0.00 547.76 497.00" xmlns="http://www.w3.org/2000/svg" xmlns:xlink="http://www.w3.org/1999/xlink">
<g id="graph0" class="graph" transform="scale(1 1) rotate(0) translate(227.879 269.5)">
<title>controllers_diagram</title>
<polygon fill="none" stroke="none" points="-227.879,227.5 -227.879,-269.5 319.88,-269.5 319.88,227.5 -227.879,227.5"/>
<!-- _diagram_info -->
<g id="node1" class="node"><title>_diagram_info</title>
<text text-anchor="start" x="104.312" y="-107.1" font-family="Times,serif" font-size="13.00">Controllers diagram</text>
<text text-anchor="start" x="104.312" y="-94.1" font-family="Times,serif" font-size="13.00">Date: Feb 16 2016 &#45; 10:43</text>
<text text-anchor="start" x="104.312" y="-81.1" font-family="Times,serif" font-size="13.00">Migration version: 20150813082514</text>
<text text-anchor="start" x="104.312" y="-68.1" font-family="Times,serif" font-size="13.00">Generated by RailRoady 1.4.2</text>
<text text-anchor="start" x="104.312" y="-55.1" font-family="Times,serif" font-size="13.00">http://railroady.prestonlee.com</text>
</g>
<!-- ApplicationController -->
<g id="node2" class="node"><title>ApplicationController</title>
<path fill="none" stroke="black" d="M108.034,95C108.034,95 281.966,95 281.966,95 287.966,95 293.966,89 293.966,83 293.966,83 293.966,-11 293.966,-11 293.966,-17 287.966,-23 281.966,-23 281.966,-23 108.034,-23 108.034,-23 102.034,-23 96.0342,-17 96.0342,-11 96.0342,-11 96.0342,83 96.0342,83 96.0342,89 102.034,95 108.034,95"/>
<text text-anchor="middle" x="195" y="-7.8" font-family="Times,serif" font-size="14.00">ApplicationController</text>
<polyline fill="none" stroke="black" points="96.0342,-1 293.966,-1 "/>
<text text-anchor="start" x="104.034" y="14.2" font-family="Times,serif" font-size="14.00">configure_permitted_parameters</text>
<text text-anchor="start" x="104.034" y="28.2" font-family="Times,serif" font-size="14.00">set_locale</text>
<text text-anchor="start" x="104.034" y="42.2" font-family="Times,serif" font-size="14.00">verify_admin</text>
<polyline fill="none" stroke="black" points="96.0342,49 293.966,49 "/>
<polyline fill="none" stroke="black" points="96.0342,73 293.966,73 "/>
<text text-anchor="start" x="104.034" y="88.2" font-family="Times,serif" font-size="14.00">_layout</text>
</g>
<!-- BehaviorEventsController -->
<g id="node3" class="node"><title>BehaviorEventsController</title>
<path fill="none" stroke="black" d="M-84.4829,-145C-84.4829,-145 54.4829,-145 54.4829,-145 60.4829,-145 66.4829,-151 66.4829,-157 66.4829,-157 66.4829,-223 66.4829,-223 66.4829,-229 60.4829,-235 54.4829,-235 54.4829,-235 -84.4829,-235 -84.4829,-235 -90.4829,-235 -96.4829,-229 -96.4829,-223 -96.4829,-223 -96.4829,-157 -96.4829,-157 -96.4829,-151 -90.4829,-145 -84.4829,-145"/>
<text text-anchor="middle" x="-15" y="-219.8" font-family="Times,serif" font-size="14.00">BehaviorEventsController</text>
<polyline fill="none" stroke="black" points="-96.4829,-213 66.4829,-213 "/>
<text text-anchor="start" x="-88.4829" y="-197.8" font-family="Times,serif" font-size="14.00">create</text>
<polyline fill="none" stroke="black" points="-96.4829,-191 66.4829,-191 "/>
<polyline fill="none" stroke="black" points="-96.4829,-167 66.4829,-167 "/>
<text text-anchor="start" x="-88.4829" y="-151.8" font-family="Times,serif" font-size="14.00">_layout</text>
</g>
<!-- ExperimentsController -->
<g id="node4" class="node"><title>ExperimentsController</title>
<path fill="none" stroke="black" d="M-68.1519,127C-68.1519,127 52.1519,127 52.1519,127 58.1519,127 64.1519,121 64.1519,115 64.1519,115 64.1519,-105 64.1519,-105 64.1519,-111 58.1519,-117 52.1519,-117 52.1519,-117 -68.1519,-117 -68.1519,-117 -74.1519,-117 -80.1519,-111 -80.1519,-105 -80.1519,-105 -80.1519,115 -80.1519,115 -80.1519,121 -74.1519,127 -68.1519,127"/>
<text text-anchor="middle" x="-8" y="-101.8" font-family="Times,serif" font-size="14.00">ExperimentsController</text>
<polyline fill="none" stroke="black" points="-80.1519,-95 64.1519,-95 "/>
<text text-anchor="start" x="-72.1519" y="-79.8" font-family="Times,serif" font-size="14.00">complete_introduction</text>
<text text-anchor="start" x="-72.1519" y="-65.8" font-family="Times,serif" font-size="14.00">complete_outro</text>
<text text-anchor="start" x="-72.1519" y="-51.8" font-family="Times,serif" font-size="14.00">finish</text>
<text text-anchor="start" x="-72.1519" y="-37.8" font-family="Times,serif" font-size="14.00">finished</text>
<text text-anchor="start" x="-72.1519" y="-23.8" font-family="Times,serif" font-size="14.00">index</text>
<text text-anchor="start" x="-72.1519" y="-9.8" font-family="Times,serif" font-size="14.00">introduction</text>
<text text-anchor="start" x="-72.1519" y="4.2" font-family="Times,serif" font-size="14.00">join</text>
<text text-anchor="start" x="-72.1519" y="18.2" font-family="Times,serif" font-size="14.00">outro</text>
<text text-anchor="start" x="-72.1519" y="32.2" font-family="Times,serif" font-size="14.00">sequencelist</text>
<text text-anchor="start" x="-72.1519" y="46.2" font-family="Times,serif" font-size="14.00">set_experiment</text>
<text text-anchor="start" x="-72.1519" y="60.2" font-family="Times,serif" font-size="14.00">show</text>
<text text-anchor="start" x="-72.1519" y="74.2" font-family="Times,serif" font-size="14.00">unjoin</text>
<polyline fill="none" stroke="black" points="-80.1519,81 64.1519,81 "/>
<polyline fill="none" stroke="black" points="-80.1519,105 64.1519,105 "/>
<text text-anchor="start" x="-72.1519" y="120.2" font-family="Times,serif" font-size="14.00">_layout</text>
</g>
<!-- HomeController -->
<g id="node5" class="node"><title>HomeController</title>
<path fill="none" stroke="black" d="M-211.879,-1C-211.879,-1 -128.121,-1 -128.121,-1 -122.121,-1 -116.121,-7 -116.121,-13 -116.121,-13 -116.121,-93 -116.121,-93 -116.121,-99 -122.121,-105 -128.121,-105 -128.121,-105 -211.879,-105 -211.879,-105 -217.879,-105 -223.879,-99 -223.879,-93 -223.879,-93 -223.879,-13 -223.879,-13 -223.879,-7 -217.879,-1 -211.879,-1"/>
<text text-anchor="middle" x="-170" y="-89.8" font-family="Times,serif" font-size="14.00">HomeController</text>
<polyline fill="none" stroke="black" points="-223.879,-83 -116.121,-83 "/>
<text text-anchor="start" x="-215.879" y="-67.8" font-family="Times,serif" font-size="14.00">about</text>
<text text-anchor="start" x="-215.879" y="-53.8" font-family="Times,serif" font-size="14.00">index</text>
<polyline fill="none" stroke="black" points="-223.879,-47 -116.121,-47 "/>
<polyline fill="none" stroke="black" points="-223.879,-23 -116.121,-23 "/>
<text text-anchor="start" x="-215.879" y="-7.8" font-family="Times,serif" font-size="14.00">_layout</text>
</g>
<!-- TestSequencesController -->
<g id="node6" class="node"><title>TestSequencesController</title>
<path fill="none" stroke="black" d="M172.12,-161C172.12,-161 303.88,-161 303.88,-161 309.88,-161 315.88,-167 315.88,-173 315.88,-173 315.88,-253 315.88,-253 315.88,-259 309.88,-265 303.88,-265 303.88,-265 172.12,-265 172.12,-265 166.12,-265 160.12,-259 160.12,-253 160.12,-253 160.12,-173 160.12,-173 160.12,-167 166.12,-161 172.12,-161"/>
<text text-anchor="middle" x="238" y="-249.8" font-family="Times,serif" font-size="14.00">TestSequencesController</text>
<polyline fill="none" stroke="black" points="160.12,-243 315.88,-243 "/>
<text text-anchor="start" x="168.12" y="-227.8" font-family="Times,serif" font-size="14.00">set_test_sequence</text>
<text text-anchor="start" x="168.12" y="-213.8" font-family="Times,serif" font-size="14.00">watch</text>
<polyline fill="none" stroke="black" points="160.12,-207 315.88,-207 "/>
<polyline fill="none" stroke="black" points="160.12,-183 315.88,-183 "/>
<text text-anchor="start" x="168.12" y="-167.8" font-family="Times,serif" font-size="14.00">_layout</text>
</g>
<!-- UsersController -->
<g id="node7" class="node"><title>UsersController</title>
<path fill="none" stroke="black" d="M107.914,223C107.914,223 190.086,223 190.086,223 196.086,223 202.086,217 202.086,211 202.086,211 202.086,145 202.086,145 202.086,139 196.086,133 190.086,133 190.086,133 107.914,133 107.914,133 101.914,133 95.9136,139 95.9136,145 95.9136,145 95.9136,211 95.9136,211 95.9136,217 101.914,223 107.914,223"/>
<text text-anchor="middle" x="149" y="148.2" font-family="Times,serif" font-size="14.00">UsersController</text>
<polyline fill="none" stroke="black" points="95.9136,155 202.086,155 "/>
<text text-anchor="start" x="103.914" y="170.2" font-family="Times,serif" font-size="14.00">changelanguage</text>
<polyline fill="none" stroke="black" points="95.9136,177 202.086,177 "/>
<polyline fill="none" stroke="black" points="95.9136,201 202.086,201 "/>
<text text-anchor="start" x="103.914" y="216.2" font-family="Times,serif" font-size="14.00">_layout</text>
</g>
</g>
</svg>
