<?xml version="1.0" encoding="UTF-8" standalone="no"?>
<!DOCTYPE svg PUBLIC "-//W3C//DTD SVG 1.1//EN"
 "http://www.w3.org/Graphics/SVG/1.1/DTD/svg11.dtd">
<!-- Generated by graphviz version 2.38.0 (20140413.2041)
 -->
<!-- Title: models_diagram Pages: 1 -->
<svg width="1467pt" height="1647pt"
 viewBox="0.00 0.00 1466.75 1647.00" xmlns="http://www.w3.org/2000/svg" xmlns:xlink="http://www.w3.org/1999/xlink">
<g id="graph0" class="graph" transform="scale(1 1) rotate(0) translate(4 1643)">
<title>models_diagram</title>
<polygon fill="none" stroke="none" points="-4,4 -4,-1643 1462.75,-1643 1462.75,4 -4,4"/>
<!-- _diagram_info -->
<g id="node1" class="node"><title>_diagram_info</title>
<text text-anchor="start" x="636.954" y="-1610.6" font-family="Times,serif" font-size="13.00">Models diagram</text>
<text text-anchor="start" x="636.954" y="-1597.6" font-family="Times,serif" font-size="13.00">Date: Feb 16 2016 &#45; 10:43</text>
<text text-anchor="start" x="636.954" y="-1584.6" font-family="Times,serif" font-size="13.00">Migration version: 20150813082514</text>
<text text-anchor="start" x="636.954" y="-1571.6" font-family="Times,serif" font-size="13.00">Generated by RailRoady 1.4.2</text>
<text text-anchor="start" x="636.954" y="-1558.6" font-family="Times,serif" font-size="13.00">http://railroady.prestonlee.com</text>
</g>
<!-- BehaviorEvent -->
<g id="node2" class="node"><title>BehaviorEvent</title>
<path fill="none" stroke="black" d="M12,-7.5C12,-7.5 237.283,-7.5 237.283,-7.5 243.283,-7.5 249.283,-13.5 249.283,-19.5 249.283,-19.5 249.283,-123.5 249.283,-123.5 249.283,-129.5 243.283,-135.5 237.283,-135.5 237.283,-135.5 12,-135.5 12,-135.5 6,-135.5 0,-129.5 0,-123.5 0,-123.5 0,-19.5 0,-19.5 0,-13.5 6,-7.5 12,-7.5"/>
<text text-anchor="middle" x="124.642" y="-120.3" font-family="Times,serif" font-size="14.00">BehaviorEvent</text>
<polyline fill="none" stroke="black" points="0,-113.5 249.283,-113.5 "/>
<text text-anchor="start" x="8" y="-98.3" font-family="Times,serif" font-size="14.00">id :integer</text>
<text text-anchor="start" x="8" y="-84.3" font-family="Times,serif" font-size="14.00">sequence_result_id :integer</text>
<text text-anchor="start" x="8" y="-70.3" font-family="Times,serif" font-size="14.00">type :character varying</text>
<text text-anchor="start" x="8" y="-56.3" font-family="Times,serif" font-size="14.00">value :text</text>
<text text-anchor="start" x="8" y="-42.3" font-family="Times,serif" font-size="14.00">client_time :timestamp without time zone</text>
<text text-anchor="start" x="8" y="-28.3" font-family="Times,serif" font-size="14.00">created_at :timestamp without time zone</text>
<text text-anchor="start" x="8" y="-14.3" font-family="Times,serif" font-size="14.00">updated_at :timestamp without time zone</text>
</g>
<!-- Condition -->
<g id="node3" class="node"><title>Condition</title>
<path fill="none" stroke="black" d="M866.779,-1538.5C866.779,-1538.5 1090.5,-1538.5 1090.5,-1538.5 1096.5,-1538.5 1102.5,-1544.5 1102.5,-1550.5 1102.5,-1550.5 1102.5,-1626.5 1102.5,-1626.5 1102.5,-1632.5 1096.5,-1638.5 1090.5,-1638.5 1090.5,-1638.5 866.779,-1638.5 866.779,-1638.5 860.779,-1638.5 854.779,-1632.5 854.779,-1626.5 854.779,-1626.5 854.779,-1550.5 854.779,-1550.5 854.779,-1544.5 860.779,-1538.5 866.779,-1538.5"/>
<text text-anchor="middle" x="978.642" y="-1623.3" font-family="Times,serif" font-size="14.00">Condition</text>
<polyline fill="none" stroke="black" points="854.779,-1616.5 1102.5,-1616.5 "/>
<text text-anchor="start" x="862.779" y="-1601.3" font-family="Times,serif" font-size="14.00">id :integer</text>
<text text-anchor="start" x="862.779" y="-1587.3" font-family="Times,serif" font-size="14.00">cond_id :character varying</text>
<text text-anchor="start" x="862.779" y="-1573.3" font-family="Times,serif" font-size="14.00">player_params :text</text>
<text text-anchor="start" x="862.779" y="-1559.3" font-family="Times,serif" font-size="14.00">created_at :timestamp without time zone</text>
<text text-anchor="start" x="862.779" y="-1545.3" font-family="Times,serif" font-size="14.00">updated_at :timestamp without time zone</text>
</g>
<!-- Experiment -->
<g id="node4" class="node"><title>Experiment</title>
<path fill="none" stroke="black" d="M866.017,-1246.5C866.017,-1246.5 1091.27,-1246.5 1091.27,-1246.5 1097.27,-1246.5 1103.27,-1252.5 1103.27,-1258.5 1103.27,-1258.5 1103.27,-1488.5 1103.27,-1488.5 1103.27,-1494.5 1097.27,-1500.5 1091.27,-1500.5 1091.27,-1500.5 866.017,-1500.5 866.017,-1500.5 860.017,-1500.5 854.017,-1494.5 854.017,-1488.5 854.017,-1488.5 854.017,-1258.5 854.017,-1258.5 854.017,-1252.5 860.017,-1246.5 866.017,-1246.5"/>
<text text-anchor="middle" x="978.642" y="-1485.3" font-family="Times,serif" font-size="14.00">Experiment</text>
<polyline fill="none" stroke="black" points="854.017,-1478.5 1103.27,-1478.5 "/>
<text text-anchor="start" x="862.017" y="-1463.3" font-family="Times,serif" font-size="14.00">id :integer</text>
<text text-anchor="start" x="862.017" y="-1449.3" font-family="Times,serif" font-size="14.00">name :character varying</text>
<text text-anchor="start" x="862.017" y="-1435.3" font-family="Times,serif" font-size="14.00">description :text</text>
<text text-anchor="start" x="862.017" y="-1421.3" font-family="Times,serif" font-size="14.00">introduction :text</text>
<text text-anchor="start" x="862.017" y="-1407.3" font-family="Times,serif" font-size="14.00">main_instructions :text</text>
<text text-anchor="start" x="862.017" y="-1393.3" font-family="Times,serif" font-size="14.00">outro :text</text>
<text text-anchor="start" x="862.017" y="-1379.3" font-family="Times,serif" font-size="14.00">active :boolean</text>
<text text-anchor="start" x="862.017" y="-1365.3" font-family="Times,serif" font-size="14.00">access_key :character varying</text>
<text text-anchor="start" x="862.017" y="-1351.3" font-family="Times,serif" font-size="14.00">finish_key :character varying</text>
<text text-anchor="start" x="862.017" y="-1337.3" font-family="Times,serif" font-size="14.00">pre_questionnaire_url :character varying</text>
<text text-anchor="start" x="862.017" y="-1323.3" font-family="Times,serif" font-size="14.00">post_questionnaire_url :character varying</text>
<text text-anchor="start" x="862.017" y="-1309.3" font-family="Times,serif" font-size="14.00">test_sequence_mapping :integer</text>
<text text-anchor="start" x="862.017" y="-1295.3" font-family="Times,serif" font-size="14.00">reference_condition :character varying</text>
<text text-anchor="start" x="862.017" y="-1281.3" font-family="Times,serif" font-size="14.00">finish_condition :character varying</text>
<text text-anchor="start" x="862.017" y="-1267.3" font-family="Times,serif" font-size="14.00">created_at :timestamp without time zone</text>
<text text-anchor="start" x="862.017" y="-1253.3" font-family="Times,serif" font-size="14.00">updated_at :timestamp without time zone</text>
</g>
<!-- Condition&#45;&gt;Experiment -->
<g id="edge3" class="edge"><title>Condition&#45;&gt;Experiment</title>
<path fill="none" stroke="#6361c0" d="M978.642,-1528.34C978.642,-1522.72 978.642,-1516.88 978.642,-1510.9"/>
<polygon fill="#6361c0" stroke="#6361c0" points="978.642,-1528.37 974.142,-1538.37 978.642,-1533.37 978.642,-1538.37 978.642,-1538.37 978.642,-1538.37 978.642,-1533.37 983.142,-1538.37 978.642,-1528.37 978.642,-1528.37"/>
<polygon fill="#6361c0" stroke="#6361c0" points="978.642,-1510.73 983.142,-1500.73 978.642,-1505.73 978.642,-1500.73 978.642,-1500.73 978.642,-1500.73 978.642,-1505.73 974.142,-1500.73 978.642,-1510.73 978.642,-1510.73"/>
</g>
<!-- ExperimentConditionAssignment -->
<g id="node5" class="node"><title>ExperimentConditionAssignment</title>
<path fill="none" stroke="black" d="M1266.54,-1088.5C1266.54,-1088.5 1446.75,-1088.5 1446.75,-1088.5 1452.75,-1088.5 1458.75,-1094.5 1458.75,-1100.5 1458.75,-1100.5 1458.75,-1148.5 1458.75,-1148.5 1458.75,-1154.5 1452.75,-1160.5 1446.75,-1160.5 1446.75,-1160.5 1266.54,-1160.5 1266.54,-1160.5 1260.54,-1160.5 1254.54,-1154.5 1254.54,-1148.5 1254.54,-1148.5 1254.54,-1100.5 1254.54,-1100.5 1254.54,-1094.5 1260.54,-1088.5 1266.54,-1088.5"/>
<text text-anchor="middle" x="1356.64" y="-1145.3" font-family="Times,serif" font-size="14.00">ExperimentConditionAssignment</text>
<polyline fill="none" stroke="black" points="1254.54,-1138.5 1458.75,-1138.5 "/>
<text text-anchor="start" x="1262.54" y="-1123.3" font-family="Times,serif" font-size="14.00">id :integer</text>
<text text-anchor="start" x="1262.54" y="-1109.3" font-family="Times,serif" font-size="14.00">experiment_id :integer</text>
<text text-anchor="start" x="1262.54" y="-1095.3" font-family="Times,serif" font-size="14.00">condition_id :integer</text>
</g>
<!-- Condition&#45;&gt;ExperimentConditionAssignment -->
<g id="edge2" class="edge"><title>Condition&#45;&gt;ExperimentConditionAssignment</title>
<path fill="none" stroke="#0cc5d8" d="M1073.51,-1533.52C1087.39,-1523.61 1100.93,-1512.68 1112.64,-1501 1215.86,-1398.09 1298.76,-1244.52 1335.74,-1169.68"/>
<ellipse fill="none" stroke="#0cc5d8" cx="1069.95" cy="-1536.01" rx="4.00002" ry="4.00002"/>
<polygon fill="#0cc5d8" stroke="#0cc5d8" points="1335.83,-1169.5 1344.28,-1162.5 1338.03,-1165.01 1340.23,-1160.52 1340.23,-1160.52 1340.23,-1160.52 1338.03,-1165.01 1336.19,-1158.54 1335.83,-1169.5 1335.83,-1169.5"/>
</g>
<!-- TestSequence -->
<g id="node11" class="node"><title>TestSequence</title>
<path fill="none" stroke="black" d="M50.7793,-860.5C50.7793,-860.5 274.504,-860.5 274.504,-860.5 280.504,-860.5 286.504,-866.5 286.504,-872.5 286.504,-872.5 286.504,-976.5 286.504,-976.5 286.504,-982.5 280.504,-988.5 274.504,-988.5 274.504,-988.5 50.7793,-988.5 50.7793,-988.5 44.7793,-988.5 38.7793,-982.5 38.7793,-976.5 38.7793,-976.5 38.7793,-872.5 38.7793,-872.5 38.7793,-866.5 44.7793,-860.5 50.7793,-860.5"/>
<text text-anchor="middle" x="162.642" y="-973.3" font-family="Times,serif" font-size="14.00">TestSequence</text>
<polyline fill="none" stroke="black" points="38.7793,-966.5 286.504,-966.5 "/>
<text text-anchor="start" x="46.7793" y="-951.3" font-family="Times,serif" font-size="14.00">id :integer</text>
<text text-anchor="start" x="46.7793" y="-937.3" font-family="Times,serif" font-size="14.00">sequence_id :character varying</text>
<text text-anchor="start" x="46.7793" y="-923.3" font-family="Times,serif" font-size="14.00">condition_id :integer</text>
<text text-anchor="start" x="46.7793" y="-909.3" font-family="Times,serif" font-size="14.00">source_video_id :integer</text>
<text text-anchor="start" x="46.7793" y="-895.3" font-family="Times,serif" font-size="14.00">experiment_id :integer</text>
<text text-anchor="start" x="46.7793" y="-881.3" font-family="Times,serif" font-size="14.00">created_at :timestamp without time zone</text>
<text text-anchor="start" x="46.7793" y="-867.3" font-family="Times,serif" font-size="14.00">updated_at :timestamp without time zone</text>
</g>
<!-- Condition&#45;&gt;TestSequence -->
<g id="edge1" class="edge"><title>Condition&#45;&gt;TestSequence</title>
<path fill="none" stroke="#a8a303" d="M862.585,-1534.73C727.209,-1469.17 501.93,-1347.26 344.642,-1196 284.008,-1137.69 232.435,-1055.91 199.838,-997.573"/>
<ellipse fill="none" stroke="#a8a303" cx="866.563" cy="-1536.65" rx="4.00002" ry="4.00002"/>
<polygon fill="#a8a303" stroke="#a8a303" points="199.814,-997.528 198.907,-986.6 197.392,-993.154 194.97,-988.779 194.97,-988.779 194.97,-988.779 197.392,-993.154 191.033,-990.959 199.814,-997.528 199.814,-997.528"/>
</g>
<!-- Experiment&#45;&gt;ExperimentConditionAssignment -->
<g id="edge8" class="edge"><title>Experiment&#45;&gt;ExperimentConditionAssignment</title>
<path fill="none" stroke="#a951e3" d="M1110.41,-1307.15C1153.16,-1284.04 1200.02,-1256.63 1240.64,-1228 1266.17,-1210.01 1292.43,-1187.23 1313.5,-1167.71"/>
<ellipse fill="none" stroke="#a951e3" cx="1106.83" cy="-1309.07" rx="4.00002" ry="4.00002"/>
<polygon fill="#a951e3" stroke="#a951e3" points="1313.71,-1167.51 1324.08,-1163.97 1317.36,-1164.1 1321.01,-1160.68 1321.01,-1160.68 1321.01,-1160.68 1317.36,-1164.1 1317.94,-1157.4 1313.71,-1167.51 1313.71,-1167.51"/>
</g>
<!-- ExperimentProgress -->
<g id="node6" class="node"><title>ExperimentProgress</title>
<path fill="none" stroke="black" d="M406.779,-332.5C406.779,-332.5 630.504,-332.5 630.504,-332.5 636.504,-332.5 642.504,-338.5 642.504,-344.5 642.504,-344.5 642.504,-504.5 642.504,-504.5 642.504,-510.5 636.504,-516.5 630.504,-516.5 630.504,-516.5 406.779,-516.5 406.779,-516.5 400.779,-516.5 394.779,-510.5 394.779,-504.5 394.779,-504.5 394.779,-344.5 394.779,-344.5 394.779,-338.5 400.779,-332.5 406.779,-332.5"/>
<text text-anchor="middle" x="518.642" y="-501.3" font-family="Times,serif" font-size="14.00">ExperimentProgress</text>
<polyline fill="none" stroke="black" points="394.779,-494.5 642.504,-494.5 "/>
<text text-anchor="start" x="402.779" y="-479.3" font-family="Times,serif" font-size="14.00">id :integer</text>
<text text-anchor="start" x="402.779" y="-465.3" font-family="Times,serif" font-size="14.00">user_id :integer</text>
<text text-anchor="start" x="402.779" y="-451.3" font-family="Times,serif" font-size="14.00">experiment_id :integer</text>
<text text-anchor="start" x="402.779" y="-437.3" font-family="Times,serif" font-size="14.00">watched_sequences :character varying</text>
<text text-anchor="start" x="402.779" y="-423.3" font-family="Times,serif" font-size="14.00">status :integer</text>
<text text-anchor="start" x="402.779" y="-409.3" font-family="Times,serif" font-size="14.00">joined :timestamp without time zone</text>
<text text-anchor="start" x="402.779" y="-395.3" font-family="Times,serif" font-size="14.00">started :timestamp without time zone</text>
<text text-anchor="start" x="402.779" y="-381.3" font-family="Times,serif" font-size="14.00">finished :timestamp without time zone</text>
<text text-anchor="start" x="402.779" y="-367.3" font-family="Times,serif" font-size="14.00">completed :timestamp without time zone</text>
<text text-anchor="start" x="402.779" y="-353.3" font-family="Times,serif" font-size="14.00">created_at :timestamp without time zone</text>
<text text-anchor="start" x="402.779" y="-339.3" font-family="Times,serif" font-size="14.00">updated_at :timestamp without time zone</text>
</g>
<!-- Experiment&#45;&gt;ExperimentProgress -->
<g id="edge4" class="edge"><title>Experiment&#45;&gt;ExperimentProgress</title>
<path fill="none" stroke="#604bbb" d="M1110.39,-1245.08C1151.6,-1218.94 1178.1,-1232.29 1207.64,-1196 1228.13,-1170.83 1226.64,-1157.95 1226.64,-1125.5 1226.64,-1125.5 1226.64,-1125.5 1226.64,-680.5 1226.64,-559.832 858.001,-480.534 652.728,-445.732"/>
<ellipse fill="none" stroke="#604bbb" cx="1106.96" cy="-1247.39" rx="4.00002" ry="4.00002"/>
<polygon fill="#604bbb" stroke="#604bbb" points="652.637,-445.717 643.523,-439.62 647.707,-444.888 642.776,-444.058 642.776,-444.058 642.776,-444.058 647.707,-444.888 642.029,-448.496 652.637,-445.717 652.637,-445.717"/>
</g>
<!-- ExperimentSourceVideoAssignment -->
<g id="node7" class="node"><title>ExperimentSourceVideoAssignment</title>
<path fill="none" stroke="black" d="M842.414,-888.5C842.414,-888.5 1038.87,-888.5 1038.87,-888.5 1044.87,-888.5 1050.87,-894.5 1050.87,-900.5 1050.87,-900.5 1050.87,-948.5 1050.87,-948.5 1050.87,-954.5 1044.87,-960.5 1038.87,-960.5 1038.87,-960.5 842.414,-960.5 842.414,-960.5 836.414,-960.5 830.414,-954.5 830.414,-948.5 830.414,-948.5 830.414,-900.5 830.414,-900.5 830.414,-894.5 836.414,-888.5 842.414,-888.5"/>
<text text-anchor="middle" x="940.642" y="-945.3" font-family="Times,serif" font-size="14.00">ExperimentSourceVideoAssignment</text>
<polyline fill="none" stroke="black" points="830.414,-938.5 1050.87,-938.5 "/>
<text text-anchor="start" x="838.414" y="-923.3" font-family="Times,serif" font-size="14.00">id :integer</text>
<text text-anchor="start" x="838.414" y="-909.3" font-family="Times,serif" font-size="14.00">experiment_id :integer</text>
<text text-anchor="start" x="838.414" y="-895.3" font-family="Times,serif" font-size="14.00">source_video_id :integer</text>
</g>
<!-- Experiment&#45;&gt;ExperimentSourceVideoAssignment -->
<g id="edge7" class="edge"><title>Experiment&#45;&gt;ExperimentSourceVideoAssignment</title>
<path fill="none" stroke="#888b71" d="M965.558,-1238.29C965.246,-1234.82 964.94,-1231.39 964.642,-1228 956.616,-1136.91 948.44,-1030.27 944.007,-971.051"/>
<ellipse fill="none" stroke="#888b71" cx="965.934" cy="-1242.43" rx="4" ry="4"/>
<polygon fill="#888b71" stroke="#888b71" points="943.995,-970.883 947.738,-960.575 943.622,-965.897 943.25,-960.911 943.25,-960.911 943.25,-960.911 943.622,-965.897 938.763,-961.246 943.995,-970.883 943.995,-970.883"/>
</g>
<!-- SourceVideo -->
<g id="node10" class="node"><title>SourceVideo</title>
<path fill="none" stroke="black" d="M599.779,-1053.5C599.779,-1053.5 823.504,-1053.5 823.504,-1053.5 829.504,-1053.5 835.504,-1059.5 835.504,-1065.5 835.504,-1065.5 835.504,-1183.5 835.504,-1183.5 835.504,-1189.5 829.504,-1195.5 823.504,-1195.5 823.504,-1195.5 599.779,-1195.5 599.779,-1195.5 593.779,-1195.5 587.779,-1189.5 587.779,-1183.5 587.779,-1183.5 587.779,-1065.5 587.779,-1065.5 587.779,-1059.5 593.779,-1053.5 599.779,-1053.5"/>
<text text-anchor="middle" x="711.642" y="-1180.3" font-family="Times,serif" font-size="14.00">SourceVideo</text>
<polyline fill="none" stroke="black" points="587.779,-1173.5 835.504,-1173.5 "/>
<text text-anchor="start" x="595.779" y="-1158.3" font-family="Times,serif" font-size="14.00">id :integer</text>
<text text-anchor="start" x="595.779" y="-1144.3" font-family="Times,serif" font-size="14.00">src_id :character varying</text>
<text text-anchor="start" x="595.779" y="-1130.3" font-family="Times,serif" font-size="14.00">url :character varying</text>
<text text-anchor="start" x="595.779" y="-1116.3" font-family="Times,serif" font-size="14.00">name :character varying</text>
<text text-anchor="start" x="595.779" y="-1102.3" font-family="Times,serif" font-size="14.00">duration :integer</text>
<text text-anchor="start" x="595.779" y="-1088.3" font-family="Times,serif" font-size="14.00">description :text</text>
<text text-anchor="start" x="595.779" y="-1074.3" font-family="Times,serif" font-size="14.00">created_at :timestamp without time zone</text>
<text text-anchor="start" x="595.779" y="-1060.3" font-family="Times,serif" font-size="14.00">updated_at :timestamp without time zone</text>
</g>
<!-- Experiment&#45;&gt;SourceVideo -->
<g id="edge9" class="edge"><title>Experiment&#45;&gt;SourceVideo</title>
<path fill="none" stroke="#99284e" d="M846.295,-1250.07C828.758,-1233.84 811.194,-1217.6 794.814,-1202.44"/>
<polygon fill="#99284e" stroke="#99284e" points="846.4,-1250.16 850.685,-1260.26 850.07,-1253.56 853.741,-1256.96 853.741,-1256.96 853.741,-1256.96 850.07,-1253.56 856.797,-1253.65 846.4,-1250.16 846.4,-1250.16"/>
<polygon fill="#99284e" stroke="#99284e" points="794.717,-1202.35 790.432,-1192.26 791.047,-1198.96 787.376,-1195.56 787.376,-1195.56 787.376,-1195.56 791.047,-1198.96 784.32,-1198.86 794.717,-1202.35 794.717,-1202.35"/>
</g>
<!-- Experiment&#45;&gt;TestSequence -->
<g id="edge6" class="edge"><title>Experiment&#45;&gt;TestSequence</title>
<path fill="none" stroke="#7fc780" d="M846.055,-1320.31C766.924,-1287.62 665.299,-1242.9 578.642,-1196 464.923,-1134.46 341.549,-1052.09 258.934,-994.481"/>
<ellipse fill="none" stroke="#7fc780" cx="849.943" cy="-1321.91" rx="4.00001" ry="4.00001"/>
<polygon fill="#7fc780" stroke="#7fc780" points="258.765,-994.362 253.146,-984.946 254.667,-991.498 250.568,-988.634 250.568,-988.634 250.568,-988.634 254.667,-991.498 247.991,-992.323 258.765,-994.362 258.765,-994.362"/>
</g>
<!-- User -->
<g id="node13" class="node"><title>User</title>
<path fill="none" stroke="black" d="M336.007,-554.5C336.007,-554.5 631.276,-554.5 631.276,-554.5 637.276,-554.5 643.276,-560.5 643.276,-566.5 643.276,-566.5 643.276,-796.5 643.276,-796.5 643.276,-802.5 637.276,-808.5 631.276,-808.5 631.276,-808.5 336.007,-808.5 336.007,-808.5 330.007,-808.5 324.007,-802.5 324.007,-796.5 324.007,-796.5 324.007,-566.5 324.007,-566.5 324.007,-560.5 330.007,-554.5 336.007,-554.5"/>
<text text-anchor="middle" x="483.642" y="-793.3" font-family="Times,serif" font-size="14.00">User</text>
<polyline fill="none" stroke="black" points="324.007,-786.5 643.276,-786.5 "/>
<text text-anchor="start" x="332.007" y="-771.3" font-family="Times,serif" font-size="14.00">id :integer</text>
<text text-anchor="start" x="332.007" y="-757.3" font-family="Times,serif" font-size="14.00">email :character varying</text>
<text text-anchor="start" x="332.007" y="-743.3" font-family="Times,serif" font-size="14.00">encrypted_password :character varying</text>
<text text-anchor="start" x="332.007" y="-729.3" font-family="Times,serif" font-size="14.00">name :character varying</text>
<text text-anchor="start" x="332.007" y="-715.3" font-family="Times,serif" font-size="14.00">admin :boolean</text>
<text text-anchor="start" x="332.007" y="-701.3" font-family="Times,serif" font-size="14.00">locale :character varying</text>
<text text-anchor="start" x="332.007" y="-687.3" font-family="Times,serif" font-size="14.00">reset_password_token :character varying</text>
<text text-anchor="start" x="332.007" y="-673.3" font-family="Times,serif" font-size="14.00">reset_password_sent_at :timestamp without time zone</text>
<text text-anchor="start" x="332.007" y="-659.3" font-family="Times,serif" font-size="14.00">remember_created_at :timestamp without time zone</text>
<text text-anchor="start" x="332.007" y="-645.3" font-family="Times,serif" font-size="14.00">sign_in_count :integer</text>
<text text-anchor="start" x="332.007" y="-631.3" font-family="Times,serif" font-size="14.00">current_sign_in_at :timestamp without time zone</text>
<text text-anchor="start" x="332.007" y="-617.3" font-family="Times,serif" font-size="14.00">last_sign_in_at :timestamp without time zone</text>
<text text-anchor="start" x="332.007" y="-603.3" font-family="Times,serif" font-size="14.00">current_sign_in_ip :character varying</text>
<text text-anchor="start" x="332.007" y="-589.3" font-family="Times,serif" font-size="14.00">last_sign_in_ip :character varying</text>
<text text-anchor="start" x="332.007" y="-575.3" font-family="Times,serif" font-size="14.00">created_at :timestamp without time zone</text>
<text text-anchor="start" x="332.007" y="-561.3" font-family="Times,serif" font-size="14.00">updated_at :timestamp without time zone</text>
</g>
<!-- Experiment&#45;&gt;User -->
<g id="edge5" class="edge"><title>Experiment&#45;&gt;User</title>
<path fill="none" stroke="#afd9db" d="M975.929,-1236.02C976.622,-1164.17 981.386,-1084.55 997.642,-1053 1013.86,-1021.53 1044.37,-1034.94 1059.64,-1003 1089.75,-940.05 1101.71,-901.671 1059.64,-846 1010.43,-780.875 804.815,-734.121 653.219,-707.708"/>
<polygon fill="#afd9db" stroke="#afd9db" points="975.929,-1236.11 971.358,-1246.07 975.893,-1241.11 975.858,-1246.11 975.858,-1246.11 975.858,-1246.11 975.893,-1241.11 980.358,-1246.14 975.929,-1236.11 975.929,-1236.11"/>
<polygon fill="#afd9db" stroke="#afd9db" points="653.169,-707.699 644.08,-701.563 648.242,-706.848 643.314,-705.998 643.314,-705.998 643.314,-705.998 648.242,-706.848 642.549,-710.432 653.169,-707.699 653.169,-707.699"/>
</g>
<!-- Experiment::Translation -->
<g id="node15" class="node"><title>Experiment::Translation</title>
<ellipse fill="none" stroke="black" cx="1102.64" cy="-1124.5" rx="96.4891" ry="18"/>
<text text-anchor="middle" x="1102.64" y="-1120.3" font-family="Times,serif" font-size="14.00">Experiment::Translation</text>
</g>
<!-- Experiment&#45;&gt;Experiment::Translation -->
<g id="edge10" class="edge"><title>Experiment&#45;&gt;Experiment::Translation</title>
<path fill="none" stroke="#219697" d="M1045.52,-1239.28C1062.24,-1205.97 1078.49,-1173.6 1089.36,-1151.96"/>
<ellipse fill="none" stroke="#219697" cx="1043.71" cy="-1242.89" rx="4.00002" ry="4.00002"/>
<polygon fill="#219697" stroke="#219697" points="1089.46,-1151.75 1097.97,-1144.83 1091.71,-1147.28 1093.95,-1142.81 1093.95,-1142.81 1093.95,-1142.81 1091.71,-1147.28 1089.93,-1140.79 1089.46,-1151.75 1089.46,-1151.75"/>
<text text-anchor="middle" x="1086.91" y="-1216.8" font-family="Times,serif" font-size="14.00">translations</text>
</g>
<!-- SequenceResult -->
<g id="node9" class="node"><title>SequenceResult</title>
<path fill="none" stroke="black" d="M145.779,-180.5C145.779,-180.5 369.504,-180.5 369.504,-180.5 375.504,-180.5 381.504,-186.5 381.504,-192.5 381.504,-192.5 381.504,-282.5 381.504,-282.5 381.504,-288.5 375.504,-294.5 369.504,-294.5 369.504,-294.5 145.779,-294.5 145.779,-294.5 139.779,-294.5 133.779,-288.5 133.779,-282.5 133.779,-282.5 133.779,-192.5 133.779,-192.5 133.779,-186.5 139.779,-180.5 145.779,-180.5"/>
<text text-anchor="middle" x="257.642" y="-279.3" font-family="Times,serif" font-size="14.00">SequenceResult</text>
<polyline fill="none" stroke="black" points="133.779,-272.5 381.504,-272.5 "/>
<text text-anchor="start" x="141.779" y="-257.3" font-family="Times,serif" font-size="14.00">id :integer</text>
<text text-anchor="start" x="141.779" y="-243.3" font-family="Times,serif" font-size="14.00">experiment_progress_id :integer</text>
<text text-anchor="start" x="141.779" y="-229.3" font-family="Times,serif" font-size="14.00">test_sequence_id :integer</text>
<text text-anchor="start" x="141.779" y="-215.3" font-family="Times,serif" font-size="14.00">user_id :integer</text>
<text text-anchor="start" x="141.779" y="-201.3" font-family="Times,serif" font-size="14.00">created_at :timestamp without time zone</text>
<text text-anchor="start" x="141.779" y="-187.3" font-family="Times,serif" font-size="14.00">updated_at :timestamp without time zone</text>
</g>
<!-- ExperimentProgress&#45;&gt;SequenceResult -->
<g id="edge11" class="edge"><title>ExperimentProgress&#45;&gt;SequenceResult</title>
<path fill="none" stroke="#654803" d="M387.697,-330.685C373.258,-320.45 358.826,-310.221 345.108,-300.497"/>
<ellipse fill="none" stroke="#654803" cx="391.375" cy="-333.292" rx="4.00002" ry="4.00002"/>
<polygon fill="#654803" stroke="#654803" points="344.824,-300.296 339.268,-290.842 340.745,-297.404 336.665,-294.513 336.665,-294.513 336.665,-294.513 340.745,-297.404 334.063,-298.184 344.824,-300.296 344.824,-300.296"/>
</g>
<!-- Rating -->
<g id="node8" class="node"><title>Rating</title>
<path fill="none" stroke="black" d="M279,-0.5C279,-0.5 504.283,-0.5 504.283,-0.5 510.283,-0.5 516.283,-6.5 516.283,-12.5 516.283,-12.5 516.283,-130.5 516.283,-130.5 516.283,-136.5 510.283,-142.5 504.283,-142.5 504.283,-142.5 279,-142.5 279,-142.5 273,-142.5 267,-136.5 267,-130.5 267,-130.5 267,-12.5 267,-12.5 267,-6.5 273,-0.5 279,-0.5"/>
<text text-anchor="middle" x="391.642" y="-127.3" font-family="Times,serif" font-size="14.00">Rating</text>
<polyline fill="none" stroke="black" points="267,-120.5 516.283,-120.5 "/>
<text text-anchor="start" x="275" y="-105.3" font-family="Times,serif" font-size="14.00">id :integer</text>
<text text-anchor="start" x="275" y="-91.3" font-family="Times,serif" font-size="14.00">sequence_result_id :integer</text>
<text text-anchor="start" x="275" y="-77.3" font-family="Times,serif" font-size="14.00">question :text</text>
<text text-anchor="start" x="275" y="-63.3" font-family="Times,serif" font-size="14.00">answer :text</text>
<text text-anchor="start" x="275" y="-49.3" font-family="Times,serif" font-size="14.00">type :character varying</text>
<text text-anchor="start" x="275" y="-35.3" font-family="Times,serif" font-size="14.00">client_time :timestamp without time zone</text>
<text text-anchor="start" x="275" y="-21.3" font-family="Times,serif" font-size="14.00">created_at :timestamp without time zone</text>
<text text-anchor="start" x="275" y="-7.3" font-family="Times,serif" font-size="14.00">updated_at :timestamp without time zone</text>
</g>
<!-- SequenceResult&#45;&gt;BehaviorEvent -->
<g id="edge12" class="edge"><title>SequenceResult&#45;&gt;BehaviorEvent</title>
<path fill="none" stroke="#40b1dd" d="M206.627,-173.595C198.637,-163.743 190.332,-153.502 182.208,-143.484"/>
<ellipse fill="none" stroke="#40b1dd" cx="209.351" cy="-176.954" rx="4.00002" ry="4.00002"/>
<polygon fill="#40b1dd" stroke="#40b1dd" points="182.039,-143.276 179.236,-132.675 178.89,-139.393 175.74,-135.509 175.74,-135.509 175.74,-135.509 178.89,-139.393 172.245,-138.344 182.039,-143.276 182.039,-143.276"/>
</g>
<!-- SequenceResult&#45;&gt;Rating -->
<g id="edge13" class="edge"><title>SequenceResult&#45;&gt;Rating</title>
<path fill="none" stroke="#a8ec4b" d="M308.886,-173.783C315.123,-166.149 321.554,-158.279 327.944,-150.458"/>
<ellipse fill="none" stroke="#a8ec4b" cx="306.288" cy="-176.963" rx="4.00002" ry="4.00002"/>
<polygon fill="#a8ec4b" stroke="#a8ec4b" points="327.985,-150.408 337.797,-145.511 331.149,-146.536 334.312,-142.664 334.312,-142.664 334.312,-142.664 331.149,-146.536 330.828,-139.817 327.985,-150.408 327.985,-150.408"/>
</g>
<!-- SourceVideo&#45;&gt;ExperimentSourceVideoAssignment -->
<g id="edge16" class="edge"><title>SourceVideo&#45;&gt;ExperimentSourceVideoAssignment</title>
<path fill="none" stroke="#04a82f" d="M799.126,-1047.86C830.659,-1020.59 865.092,-990.822 892.097,-967.473"/>
<ellipse fill="none" stroke="#04a82f" cx="795.727" cy="-1050.8" rx="4.00002" ry="4.00002"/>
<polygon fill="#04a82f" stroke="#04a82f" points="892.302,-967.295 902.81,-964.159 896.085,-964.025 899.867,-960.755 899.867,-960.755 899.867,-960.755 896.085,-964.025 896.924,-957.351 892.302,-967.295 892.302,-967.295"/>
</g>
<!-- SourceVideo&#45;&gt;TestSequence -->
<g id="edge14" class="edge"><title>SourceVideo&#45;&gt;TestSequence</title>
<path fill="none" stroke="#8f9701" d="M579.411,-1094.03C496.194,-1073.35 387.537,-1042.37 295.642,-1003 288.56,-999.966 281.387,-996.633 274.232,-993.106"/>
<ellipse fill="none" stroke="#8f9701" cx="583.5" cy="-1095.05" rx="4.00001" ry="4.00001"/>
<polygon fill="#8f9701" stroke="#8f9701" points="274.116,-993.047 267.215,-984.525 269.652,-990.795 265.188,-988.542 265.188,-988.542 265.188,-988.542 269.652,-990.795 263.161,-992.56 274.116,-993.047 274.116,-993.047"/>
</g>
<!-- Thumbnail -->
<g id="node12" class="node"><title>Thumbnail</title>
<path fill="none" stroke="black" d="M316.176,-846.5C316.176,-846.5 581.107,-846.5 581.107,-846.5 587.107,-846.5 593.107,-852.5 593.107,-858.5 593.107,-858.5 593.107,-990.5 593.107,-990.5 593.107,-996.5 587.107,-1002.5 581.107,-1002.5 581.107,-1002.5 316.176,-1002.5 316.176,-1002.5 310.176,-1002.5 304.176,-996.5 304.176,-990.5 304.176,-990.5 304.176,-858.5 304.176,-858.5 304.176,-852.5 310.176,-846.5 316.176,-846.5"/>
<text text-anchor="middle" x="448.642" y="-987.3" font-family="Times,serif" font-size="14.00">Thumbnail</text>
<polyline fill="none" stroke="black" points="304.176,-980.5 593.107,-980.5 "/>
<text text-anchor="start" x="312.176" y="-965.3" font-family="Times,serif" font-size="14.00">id :integer</text>
<text text-anchor="start" x="312.176" y="-951.3" font-family="Times,serif" font-size="14.00">source_video_id :integer</text>
<text text-anchor="start" x="312.176" y="-937.3" font-family="Times,serif" font-size="14.00">order :integer</text>
<text text-anchor="start" x="312.176" y="-923.3" font-family="Times,serif" font-size="14.00">created_at :timestamp without time zone</text>
<text text-anchor="start" x="312.176" y="-909.3" font-family="Times,serif" font-size="14.00">updated_at :timestamp without time zone</text>
<text text-anchor="start" x="312.176" y="-895.3" font-family="Times,serif" font-size="14.00">image_file_name :character varying</text>
<text text-anchor="start" x="312.176" y="-881.3" font-family="Times,serif" font-size="14.00">image_content_type :character varying</text>
<text text-anchor="start" x="312.176" y="-867.3" font-family="Times,serif" font-size="14.00">image_file_size :integer</text>
<text text-anchor="start" x="312.176" y="-853.3" font-family="Times,serif" font-size="14.00">image_updated_at :timestamp without time zone</text>
</g>
<!-- SourceVideo&#45;&gt;Thumbnail -->
<g id="edge15" class="edge"><title>SourceVideo&#45;&gt;Thumbnail</title>
<path fill="none" stroke="#9e0e48" d="M612.099,-1048.56C594.768,-1035.51 576.65,-1021.87 559.049,-1008.62"/>
<ellipse fill="none" stroke="#9e0e48" cx="615.352" cy="-1051.01" rx="4.00002" ry="4.00002"/>
<polygon fill="#9e0e48" stroke="#9e0e48" points="558.993,-1008.58 553.71,-998.968 554.998,-1005.57 551.004,-1002.56 551.004,-1002.56 551.004,-1002.56 554.998,-1005.57 548.297,-1006.16 558.993,-1008.58 558.993,-1008.58"/>
</g>
<!-- SourceVideo::Translation -->
<g id="node16" class="node"><title>SourceVideo::Translation</title>
<ellipse fill="none" stroke="black" cx="711.642" cy="-924.5" rx="100.763" ry="18"/>
<text text-anchor="middle" x="711.642" y="-920.3" font-family="Times,serif" font-size="14.00">SourceVideo::Translation</text>
</g>
<!-- SourceVideo&#45;&gt;SourceVideo::Translation -->
<g id="edge17" class="edge"><title>SourceVideo&#45;&gt;SourceVideo::Translation</title>
<path fill="none" stroke="#095797" d="M711.642,-1044.97C711.642,-1012.39 711.642,-976.711 711.642,-952.907"/>
<ellipse fill="none" stroke="#095797" cx="711.642" cy="-1049.41" rx="4" ry="4"/>
<polygon fill="#095797" stroke="#095797" points="711.642,-952.858 716.142,-942.858 711.642,-947.858 711.642,-942.858 711.642,-942.858 711.642,-942.858 711.642,-947.858 707.142,-942.858 711.642,-952.858 711.642,-952.858"/>
<text text-anchor="middle" x="743.914" y="-1023.8" font-family="Times,serif" font-size="14.00">translations</text>
</g>
<!-- TestSequence&#45;&gt;SequenceResult -->
<g id="edge18" class="edge"><title>TestSequence&#45;&gt;SequenceResult</title>
<path fill="none" stroke="#5b5de8" d="M150.699,-852.088C134.701,-738.002 115.403,-509.422 181.642,-332 185.395,-321.947 190.695,-312.169 196.772,-302.959"/>
<ellipse fill="none" stroke="#5b5de8" cx="151.278" cy="-856.142" rx="4.00001" ry="4.00001"/>
<polygon fill="#5b5de8" stroke="#5b5de8" points="196.832,-302.873 206.242,-297.242 199.691,-298.771 202.55,-294.669 202.55,-294.669 202.55,-294.669 199.691,-298.771 198.858,-292.096 196.832,-302.873 196.832,-302.873"/>
</g>
<!-- TestSequence&#45;&gt;User -->
<g id="edge20" class="edge"><title>TestSequence&#45;&gt;User</title>
<path fill="none" stroke="#65de4f" d="M254.75,-854.347C273.938,-839.941 294.729,-824.331 315.69,-808.594"/>
<polygon fill="#65de4f" stroke="#65de4f" points="254.558,-854.491 243.859,-856.896 250.56,-857.493 246.561,-860.495 246.561,-860.495 246.561,-860.495 250.56,-857.493 249.263,-864.094 254.558,-854.491 254.558,-854.491"/>
<polygon fill="#65de4f" stroke="#65de4f" points="315.732,-808.563 326.431,-806.157 319.731,-805.561 323.729,-802.559 323.729,-802.559 323.729,-802.559 319.731,-805.561 321.028,-798.96 315.732,-808.563 315.732,-808.563"/>
</g>
<!-- UserTestSequenceAssignment -->
<g id="node14" class="node"><title>UserTestSequenceAssignment</title>
<path fill="none" stroke="black" d="M202.596,-388.5C202.596,-388.5 364.688,-388.5 364.688,-388.5 370.688,-388.5 376.688,-394.5 376.688,-400.5 376.688,-400.5 376.688,-448.5 376.688,-448.5 376.688,-454.5 370.688,-460.5 364.688,-460.5 364.688,-460.5 202.596,-460.5 202.596,-460.5 196.596,-460.5 190.596,-454.5 190.596,-448.5 190.596,-448.5 190.596,-400.5 190.596,-400.5 190.596,-394.5 196.596,-388.5 202.596,-388.5"/>
<text text-anchor="middle" x="283.642" y="-445.3" font-family="Times,serif" font-size="14.00">UserTestSequenceAssignment</text>
<polyline fill="none" stroke="black" points="190.596,-438.5 376.688,-438.5 "/>
<text text-anchor="start" x="198.596" y="-423.3" font-family="Times,serif" font-size="14.00">id :integer</text>
<text text-anchor="start" x="198.596" y="-409.3" font-family="Times,serif" font-size="14.00">user_id :integer</text>
<text text-anchor="start" x="198.596" y="-395.3" font-family="Times,serif" font-size="14.00">test_sequence_id :integer</text>
</g>
<!-- TestSequence&#45;&gt;UserTestSequenceAssignment -->
<g id="edge19" class="edge"><title>TestSequence&#45;&gt;UserTestSequenceAssignment</title>
<path fill="none" stroke="#f4c723" d="M179.897,-852.481C205.198,-748.351 251.637,-557.223 272.717,-470.461"/>
<ellipse fill="none" stroke="#f4c723" cx="178.911" cy="-856.541" rx="4.00001" ry="4.00001"/>
<polygon fill="#f4c723" stroke="#f4c723" points="272.738,-470.375 279.472,-461.72 273.919,-465.516 275.099,-460.658 275.099,-460.658 275.099,-460.658 273.919,-465.516 270.726,-459.595 272.738,-470.375 272.738,-470.375"/>
</g>
<!-- User&#45;&gt;ExperimentProgress -->
<g id="edge21" class="edge"><title>User&#45;&gt;ExperimentProgress</title>
<path fill="none" stroke="#22315e" d="M502.048,-546.397C502.956,-539.777 503.862,-533.181 504.754,-526.68"/>
<ellipse fill="none" stroke="#22315e" cx="501.48" cy="-550.531" rx="4.00001" ry="4.00001"/>
<polygon fill="#22315e" stroke="#22315e" points="504.784,-526.461 510.602,-517.166 505.464,-521.507 506.144,-516.554 506.144,-516.554 506.144,-516.554 505.464,-521.507 501.686,-515.942 504.784,-526.461 504.784,-526.461"/>
</g>
<!-- User&#45;&gt;UserTestSequenceAssignment -->
<g id="edge22" class="edge"><title>User&#45;&gt;UserTestSequenceAssignment</title>
<path fill="none" stroke="#030a2a" d="M379.74,-548.025C357.156,-519.231 334.839,-490.777 317.404,-468.547"/>
<ellipse fill="none" stroke="#030a2a" cx="382.345" cy="-551.347" rx="4.00002" ry="4.00002"/>
<polygon fill="#030a2a" stroke="#030a2a" points="317.381,-468.518 314.75,-457.872 314.295,-464.584 311.21,-460.649 311.21,-460.649 311.21,-460.649 314.295,-464.584 307.669,-463.426 317.381,-468.518 317.381,-468.518"/>
</g>
</g>
</svg>
