<?xml version="1.0" encoding="UTF-8" standalone="no"?>
<!DOCTYPE svg PUBLIC "-//W3C//DTD SVG 1.1//EN"
 "http://www.w3.org/Graphics/SVG/1.1/DTD/svg11.dtd">
<!-- Generated by graphviz version 2.38.0 (20140413.2041)
 -->
<!-- Title: models_diagram Pages: 1 -->
<svg width="1191pt" height="618pt"
 viewBox="0.00 0.00 1190.59 618.00" xmlns="http://www.w3.org/2000/svg" xmlns:xlink="http://www.w3.org/1999/xlink">
<g id="graph0" class="graph" transform="scale(1 1) rotate(0) translate(4 614)">
<title>models_diagram</title>
<polygon fill="none" stroke="none" points="-4,4 -4,-614 1186.59,-614 1186.59,4 -4,4"/>
<!-- _diagram_info -->
<g id="node1" class="node"><title>_diagram_info</title>
<text text-anchor="start" x="385.911" y="-595.6" font-family="Times,serif" font-size="13.00">Models diagram</text>
<text text-anchor="start" x="385.911" y="-582.6" font-family="Times,serif" font-size="13.00">Date: Feb 16 2016 &#45; 10:43</text>
<text text-anchor="start" x="385.911" y="-569.6" font-family="Times,serif" font-size="13.00">Migration version: 20150813082514</text>
<text text-anchor="start" x="385.911" y="-556.6" font-family="Times,serif" font-size="13.00">Generated by RailRoady 1.4.2</text>
<text text-anchor="start" x="385.911" y="-543.6" font-family="Times,serif" font-size="13.00">http://railroady.prestonlee.com</text>
</g>
<!-- BehaviorEvent -->
<g id="node2" class="node"><title>BehaviorEvent</title>
<ellipse fill="none" stroke="black" cx="98.5991" cy="-18" rx="63.301" ry="18"/>
<text text-anchor="middle" x="98.5991" y="-13.8" font-family="Times,serif" font-size="14.00">BehaviorEvent</text>
</g>
<!-- Condition -->
<g id="node3" class="node"><title>Condition</title>
<ellipse fill="none" stroke="black" cx="648.599" cy="-573.5" rx="45.47" ry="18"/>
<text text-anchor="middle" x="648.599" y="-569.3" font-family="Times,serif" font-size="14.00">Condition</text>
</g>
<!-- Experiment -->
<g id="node4" class="node"><title>Experiment</title>
<ellipse fill="none" stroke="black" cx="648.599" cy="-482" rx="51.2242" ry="18"/>
<text text-anchor="middle" x="648.599" y="-477.8" font-family="Times,serif" font-size="14.00">Experiment</text>
</g>
<!-- Condition&#45;&gt;Experiment -->
<g id="edge3" class="edge"><title>Condition&#45;&gt;Experiment</title>
<path fill="none" stroke="#dc6352" d="M648.599,-545.21C648.599,-534.106 648.599,-521.301 648.599,-510.206"/>
<polygon fill="#dc6352" stroke="#dc6352" points="648.599,-545.243 644.099,-555.243 648.599,-550.243 648.599,-555.243 648.599,-555.243 648.599,-555.243 648.599,-550.243 653.099,-555.244 648.599,-545.243 648.599,-545.243"/>
<polygon fill="#dc6352" stroke="#dc6352" points="648.599,-510.204 653.099,-500.203 648.599,-505.204 648.599,-500.204 648.599,-500.204 648.599,-500.204 648.599,-505.204 644.099,-500.204 648.599,-510.204 648.599,-510.204"/>
</g>
<!-- ExperimentConditionAssignment -->
<g id="node5" class="node"><title>ExperimentConditionAssignment</title>
<ellipse fill="none" stroke="black" cx="1053.6" cy="-396" rx="128.985" ry="18"/>
<text text-anchor="middle" x="1053.6" y="-391.8" font-family="Times,serif" font-size="14.00">ExperimentConditionAssignment</text>
</g>
<!-- Condition&#45;&gt;ExperimentConditionAssignment -->
<g id="edge2" class="edge"><title>Condition&#45;&gt;ExperimentConditionAssignment</title>
<path fill="none" stroke="#eb3a32" d="M686.994,-556.728C744.068,-533.177 854.559,-487.173 947.599,-446 968.059,-436.946 990.577,-426.593 1009.58,-417.742"/>
<ellipse fill="none" stroke="#eb3a32" cx="683" cy="-558.375" rx="4.00001" ry="4.00001"/>
<polygon fill="#eb3a32" stroke="#eb3a32" points="1009.82,-417.63 1020.78,-417.476 1014.35,-415.514 1018.88,-413.399 1018.88,-413.399 1018.88,-413.399 1014.35,-415.514 1016.97,-409.321 1009.82,-417.63 1009.82,-417.63"/>
</g>
<!-- TestSequence -->
<g id="node11" class="node"><title>TestSequence</title>
<ellipse fill="none" stroke="black" cx="58.5991" cy="-310" rx="58.6983" ry="18"/>
<text text-anchor="middle" x="58.5991" y="-305.8" font-family="Times,serif" font-size="14.00">TestSequence</text>
</g>
<!-- Condition&#45;&gt;TestSequence -->
<g id="edge1" class="edge"><title>Condition&#45;&gt;TestSequence</title>
<path fill="none" stroke="#6d9ec2" d="M621.632,-552.606C613.258,-547.031 603.803,-541.321 594.599,-537 425.08,-457.422 357.912,-500.076 191.599,-414 150.174,-392.56 108.67,-357.781 83.3093,-334.653"/>
<ellipse fill="none" stroke="#6d9ec2" cx="625.082" cy="-554.965" rx="4.00002" ry="4.00002"/>
<polygon fill="#6d9ec2" stroke="#6d9ec2" points="83.0063,-334.372 78.7179,-324.28 79.3348,-330.978 75.6632,-327.584 75.6632,-327.584 75.6632,-327.584 79.3348,-330.978 72.6086,-330.889 83.0063,-334.372 83.0063,-334.372"/>
</g>
<!-- Experiment&#45;&gt;ExperimentConditionAssignment -->
<g id="edge8" class="edge"><title>Experiment&#45;&gt;ExperimentConditionAssignment</title>
<path fill="none" stroke="#586c99" d="M706.393,-476.578C759.88,-471.711 841.348,-462.321 910.599,-446 942.107,-438.574 976.452,-426.928 1003.58,-416.853"/>
<ellipse fill="none" stroke="#586c99" cx="702.366" cy="-476.937" rx="4" ry="4"/>
<polygon fill="#586c99" stroke="#586c99" points="1003.88,-416.743 1014.82,-417.434 1008.56,-414.983 1013.24,-413.223 1013.24,-413.223 1013.24,-413.223 1008.56,-414.983 1011.65,-409.011 1003.88,-416.743 1003.88,-416.743"/>
</g>
<!-- ExperimentProgress -->
<g id="node6" class="node"><title>ExperimentProgress</title>
<ellipse fill="none" stroke="black" cx="421.599" cy="-164" rx="81.644" ry="18"/>
<text text-anchor="middle" x="421.599" y="-159.8" font-family="Times,serif" font-size="14.00">ExperimentProgress</text>
</g>
<!-- Experiment&#45;&gt;ExperimentProgress -->
<g id="edge4" class="edge"><title>Experiment&#45;&gt;ExperimentProgress</title>
<path fill="none" stroke="#b6d219" d="M704.066,-473.559C777.168,-462.168 896.599,-437.379 896.599,-397 896.599,-397 896.599,-397 896.599,-236 896.599,-197.412 648.224,-177.505 510.681,-169.44"/>
<ellipse fill="none" stroke="#b6d219" cx="699.784" cy="-474.212" rx="4.00001" ry="4.00001"/>
<polygon fill="#b6d219" stroke="#b6d219" points="510.552,-169.433 500.828,-164.364 505.561,-169.145 500.569,-168.857 500.569,-168.857 500.569,-168.857 505.561,-169.145 500.31,-173.349 510.552,-169.433 510.552,-169.433"/>
</g>
<!-- ExperimentSourceVideoAssignment -->
<g id="node7" class="node"><title>ExperimentSourceVideoAssignment</title>
<ellipse fill="none" stroke="black" cx="610.599" cy="-310" rx="139.014" ry="18"/>
<text text-anchor="middle" x="610.599" y="-305.8" font-family="Times,serif" font-size="14.00">ExperimentSourceVideoAssignment</text>
</g>
<!-- Experiment&#45;&gt;ExperimentSourceVideoAssignment -->
<g id="edge7" class="edge"><title>Experiment&#45;&gt;ExperimentSourceVideoAssignment</title>
<path fill="none" stroke="#ebf24d" d="M638.124,-456.649C636.82,-453.116 635.597,-449.493 634.599,-446 624.152,-409.425 617.396,-365.913 613.794,-338.373"/>
<ellipse fill="none" stroke="#ebf24d" cx="639.597" cy="-460.427" rx="4.00001" ry="4.00001"/>
<polygon fill="#ebf24d" stroke="#ebf24d" points="613.775,-338.226 616.989,-327.741 613.15,-333.265 612.525,-328.304 612.525,-328.304 612.525,-328.304 613.15,-333.265 608.06,-328.867 613.775,-338.226 613.775,-338.226"/>
</g>
<!-- SourceVideo -->
<g id="node10" class="node"><title>SourceVideo</title>
<ellipse fill="none" stroke="black" cx="352.599" cy="-396" rx="55.9994" ry="18"/>
<text text-anchor="middle" x="352.599" y="-391.8" font-family="Times,serif" font-size="14.00">SourceVideo</text>
</g>
<!-- Experiment&#45;&gt;SourceVideo -->
<g id="edge9" class="edge"><title>Experiment&#45;&gt;SourceVideo</title>
<path fill="none" stroke="#791e96" d="M599.931,-467.189C545.612,-451.774 458.137,-426.95 403.09,-411.328"/>
<polygon fill="#791e96" stroke="#791e96" points="600.282,-467.288 608.674,-474.348 605.092,-468.653 609.902,-470.018 609.902,-470.018 609.902,-470.018 605.092,-468.653 611.131,-465.689 600.282,-467.288 600.282,-467.288"/>
<polygon fill="#791e96" stroke="#791e96" points="402.824,-411.253 394.432,-404.194 398.014,-409.888 393.204,-408.523 393.204,-408.523 393.204,-408.523 398.014,-409.888 391.975,-412.852 402.824,-411.253 402.824,-411.253"/>
</g>
<!-- Experiment&#45;&gt;TestSequence -->
<g id="edge6" class="edge"><title>Experiment&#45;&gt;TestSequence</title>
<path fill="none" stroke="#e23edd" d="M592.053,-474.756C520.115,-465.852 392.605,-446.838 287.599,-414 217.098,-391.953 139.598,-353.966 95.2523,-330.8"/>
<ellipse fill="none" stroke="#e23edd" cx="596.147" cy="-475.256" rx="4.00001" ry="4.00001"/>
<polygon fill="#e23edd" stroke="#e23edd" points="95.1565,-330.749 88.4027,-322.11 90.7317,-328.421 86.307,-326.092 86.307,-326.092 86.307,-326.092 90.7317,-328.421 84.2113,-330.074 95.1565,-330.749 95.1565,-330.749"/>
</g>
<!-- User -->
<g id="node13" class="node"><title>User</title>
<ellipse fill="none" stroke="black" cx="352.599" cy="-237" rx="27" ry="18"/>
<text text-anchor="middle" x="352.599" y="-232.8" font-family="Times,serif" font-size="14.00">User</text>
</g>
<!-- Experiment&#45;&gt;User -->
<g id="edge5" class="edge"><title>Experiment&#45;&gt;User</title>
<path fill="none" stroke="#383b33" d="M647.465,-453.811C647.877,-431.477 651.681,-400.044 667.599,-378 694.615,-340.587 735.104,-367.718 758.599,-328 766.745,-314.229 769.141,-304.036 758.599,-292 734.413,-264.384 485.054,-246.183 389.543,-240.178"/>
<polygon fill="#383b33" stroke="#383b33" points="647.465,-453.962 642.997,-463.976 647.481,-458.962 647.497,-463.962 647.497,-463.962 647.497,-463.962 647.481,-458.962 651.997,-463.948 647.465,-453.962 647.465,-453.962"/>
<polygon fill="#383b33" stroke="#383b33" points="389.451,-240.172 379.748,-235.063 384.46,-239.863 379.47,-239.554 379.47,-239.554 379.47,-239.554 384.46,-239.863 379.192,-244.046 389.451,-240.172 389.451,-240.172"/>
</g>
<!-- Experiment::Translation -->
<g id="node15" class="node"><title>Experiment::Translation</title>
<ellipse fill="none" stroke="black" cx="772.599" cy="-396" rx="96.4891" ry="18"/>
<text text-anchor="middle" x="772.599" y="-391.8" font-family="Times,serif" font-size="14.00">Experiment::Translation</text>
</g>
<!-- Experiment&#45;&gt;Experiment::Translation -->
<g id="edge10" class="edge"><title>Experiment&#45;&gt;Experiment::Translation</title>
<path fill="none" stroke="#5442a3" d="M677.733,-461.264C696.317,-448.675 720.443,-432.332 739.713,-419.277"/>
<ellipse fill="none" stroke="#5442a3" cx="674.366" cy="-463.545" rx="4.00002" ry="4.00002"/>
<polygon fill="#5442a3" stroke="#5442a3" points="739.909,-419.145 750.712,-417.262 744.049,-416.34 748.189,-413.536 748.189,-413.536 748.189,-413.536 744.049,-416.34 745.665,-409.811 739.909,-419.145 739.909,-419.145"/>
<text text-anchor="middle" x="749.872" y="-434.8" font-family="Times,serif" font-size="14.00">translations</text>
</g>
<!-- SequenceResult -->
<g id="node9" class="node"><title>SequenceResult</title>
<ellipse fill="none" stroke="black" cx="155.599" cy="-91" rx="66.6839" ry="18"/>
<text text-anchor="middle" x="155.599" y="-86.8" font-family="Times,serif" font-size="14.00">SequenceResult</text>
</g>
<!-- ExperimentProgress&#45;&gt;SequenceResult -->
<g id="edge11" class="edge"><title>ExperimentProgress&#45;&gt;SequenceResult</title>
<path fill="none" stroke="#481f1f" d="M363.628,-147.527C318.365,-135.445 255.871,-118.764 211.219,-106.846"/>
<ellipse fill="none" stroke="#481f1f" cx="367.702" cy="-148.614" rx="4.00001" ry="4.00001"/>
<polygon fill="#481f1f" stroke="#481f1f" points="211.071,-106.806 202.569,-99.8796 206.24,-105.517 201.409,-104.227 201.409,-104.227 201.409,-104.227 206.24,-105.517 200.248,-108.575 211.071,-106.806 211.071,-106.806"/>
</g>
<!-- Rating -->
<g id="node8" class="node"><title>Rating</title>
<ellipse fill="none" stroke="black" cx="213.599" cy="-18" rx="33.877" ry="18"/>
<text text-anchor="middle" x="213.599" y="-13.8" font-family="Times,serif" font-size="14.00">Rating</text>
</g>
<!-- SequenceResult&#45;&gt;BehaviorEvent -->
<g id="edge12" class="edge"><title>SequenceResult&#45;&gt;BehaviorEvent</title>
<path fill="none" stroke="#af76a7" d="M136.951,-66.7712C130.973,-59.3249 124.335,-51.0571 118.285,-43.5214"/>
<ellipse fill="none" stroke="#af76a7" cx="139.587" cy="-70.0548" rx="4.00002" ry="4.00002"/>
<polygon fill="#af76a7" stroke="#af76a7" points="118.271,-43.5032 115.519,-32.8881 115.14,-39.6042 112.01,-35.7052 112.01,-35.7052 112.01,-35.7052 115.14,-39.6042 108.501,-38.5224 118.271,-43.5032 118.271,-43.5032"/>
</g>
<!-- SequenceResult&#45;&gt;Rating -->
<g id="edge13" class="edge"><title>SequenceResult&#45;&gt;Rating</title>
<path fill="none" stroke="#adca71" d="M174.489,-66.8761C180.801,-59.149 187.844,-50.5277 194.195,-42.7534"/>
<ellipse fill="none" stroke="#adca71" cx="171.875" cy="-70.0762" rx="4.00002" ry="4.00002"/>
<polygon fill="#adca71" stroke="#adca71" points="194.421,-42.4769 204.232,-37.5793 197.584,-38.6046 200.747,-34.7324 200.747,-34.7324 200.747,-34.7324 197.584,-38.6046 197.262,-31.8855 194.421,-42.4769 194.421,-42.4769"/>
</g>
<!-- SourceVideo&#45;&gt;ExperimentSourceVideoAssignment -->
<g id="edge16" class="edge"><title>SourceVideo&#45;&gt;ExperimentSourceVideoAssignment</title>
<path fill="none" stroke="#318711" d="M398.098,-380.186C440.941,-366.238 505.331,-345.273 552,-330.079"/>
<ellipse fill="none" stroke="#318711" cx="394.194" cy="-381.457" rx="4.00001" ry="4.00001"/>
<polygon fill="#318711" stroke="#318711" points="552.167,-330.025 563.069,-331.208 556.921,-328.477 561.675,-326.929 561.675,-326.929 561.675,-326.929 556.921,-328.477 560.282,-322.65 552.167,-330.025 552.167,-330.025"/>
</g>
<!-- SourceVideo&#45;&gt;TestSequence -->
<g id="edge14" class="edge"><title>SourceVideo&#45;&gt;TestSequence</title>
<path fill="none" stroke="#bd7c1c" d="M304.573,-381.278C251.098,-366 164.99,-341.398 110.135,-325.725"/>
<ellipse fill="none" stroke="#bd7c1c" cx="308.49" cy="-382.397" rx="4.00001" ry="4.00001"/>
<polygon fill="#bd7c1c" stroke="#bd7c1c" points="109.886,-325.654 101.507,-318.579 105.079,-324.28 100.271,-322.906 100.271,-322.906 100.271,-322.906 105.079,-324.28 99.0348,-327.233 109.886,-325.654 109.886,-325.654"/>
</g>
<!-- Thumbnail -->
<g id="node12" class="node"><title>Thumbnail</title>
<ellipse fill="none" stroke="black" cx="184.599" cy="-310" rx="48.8273" ry="18"/>
<text text-anchor="middle" x="184.599" y="-305.8" font-family="Times,serif" font-size="14.00">Thumbnail</text>
</g>
<!-- SourceVideo&#45;&gt;Thumbnail -->
<g id="edge15" class="edge"><title>SourceVideo&#45;&gt;Thumbnail</title>
<path fill="none" stroke="#20419c" d="M316.5,-376.95C288.526,-362.963 249.906,-343.653 221.686,-329.543"/>
<ellipse fill="none" stroke="#20419c" cx="320.141" cy="-378.771" rx="4.00002" ry="4.00002"/>
<polygon fill="#20419c" stroke="#20419c" points="221.488,-329.445 214.557,-320.948 217.016,-327.209 212.544,-324.973 212.544,-324.973 212.544,-324.973 217.016,-327.209 210.532,-328.997 221.488,-329.445 221.488,-329.445"/>
</g>
<!-- SourceVideo::Translation -->
<g id="node16" class="node"><title>SourceVideo::Translation</title>
<ellipse fill="none" stroke="black" cx="352.599" cy="-310" rx="100.763" ry="18"/>
<text text-anchor="middle" x="352.599" y="-305.8" font-family="Times,serif" font-size="14.00">SourceVideo::Translation</text>
</g>
<!-- SourceVideo&#45;&gt;SourceVideo::Translation -->
<g id="edge17" class="edge"><title>SourceVideo&#45;&gt;SourceVideo::Translation</title>
<path fill="none" stroke="#166f1b" d="M352.599,-369.257C352.599,-359.441 352.599,-348.226 352.599,-338.273"/>
<ellipse fill="none" stroke="#166f1b" cx="352.599" cy="-373.595" rx="4" ry="4"/>
<polygon fill="#166f1b" stroke="#166f1b" points="352.599,-338.095 357.099,-328.095 352.599,-333.095 352.599,-328.095 352.599,-328.095 352.599,-328.095 352.599,-333.095 348.099,-328.095 352.599,-338.095 352.599,-338.095"/>
<text text-anchor="middle" x="384.872" y="-348.8" font-family="Times,serif" font-size="14.00">translations</text>
</g>
<!-- TestSequence&#45;&gt;SequenceResult -->
<g id="edge18" class="edge"><title>TestSequence&#45;&gt;SequenceResult</title>
<path fill="none" stroke="#83f6c1" d="M55.4488,-283.835C52.4892,-249.967 51.7796,-189.01 77.5991,-146 86.0827,-131.868 99.8538,-120.532 113.482,-111.967"/>
<ellipse fill="none" stroke="#83f6c1" cx="55.8437" cy="-287.854" rx="4" ry="4"/>
<polygon fill="#83f6c1" stroke="#83f6c1" points="113.744,-111.813 124.644,-110.614 118.052,-109.275 122.36,-106.736 122.36,-106.736 122.36,-106.736 118.052,-109.275 120.075,-102.859 113.744,-111.813 113.744,-111.813"/>
</g>
<!-- TestSequence&#45;&gt;User -->
<g id="edge20" class="edge"><title>TestSequence&#45;&gt;User</title>
<path fill="none" stroke="#b9e228" d="M112.339,-295.51C117.159,-294.316 121.967,-293.132 126.599,-292 194.077,-275.504 273.03,-256.768 317.492,-246.269"/>
<polygon fill="#b9e228" stroke="#b9e228" points="112.183,-295.549 101.393,-293.592 107.33,-296.754 102.478,-297.959 102.478,-297.959 102.478,-297.959 107.33,-296.754 103.562,-302.326 112.183,-295.549 112.183,-295.549"/>
<polygon fill="#b9e228" stroke="#b9e228" points="317.763,-246.205 328.53,-248.287 322.63,-245.056 327.496,-243.908 327.496,-243.908 327.496,-243.908 322.63,-245.056 326.462,-239.528 317.763,-246.205 317.763,-246.205"/>
</g>
<!-- UserTestSequenceAssignment -->
<g id="node14" class="node"><title>UserTestSequenceAssignment</title>
<ellipse fill="none" stroke="black" cx="204.599" cy="-164" rx="117.6" ry="18"/>
<text text-anchor="middle" x="204.599" y="-159.8" font-family="Times,serif" font-size="14.00">UserTestSequenceAssignment</text>
</g>
<!-- TestSequence&#45;&gt;UserTestSequenceAssignment -->
<g id="edge19" class="edge"><title>TestSequence&#45;&gt;UserTestSequenceAssignment</title>
<path fill="none" stroke="#957b73" d="M81.2489,-286.66C107.964,-260.312 152.22,-216.661 179.826,-189.434"/>
<ellipse fill="none" stroke="#957b73" cx="78.195" cy="-289.673" rx="4.00002" ry="4.00002"/>
<polygon fill="#957b73" stroke="#957b73" points="180.022,-189.24 190.302,-185.422 183.582,-185.729 187.142,-182.218 187.142,-182.218 187.142,-182.218 183.582,-185.729 183.982,-179.014 180.022,-189.24 180.022,-189.24"/>
</g>
<!-- User&#45;&gt;ExperimentProgress -->
<g id="edge21" class="edge"><title>User&#45;&gt;ExperimentProgress</title>
<path fill="none" stroke="#64efb9" d="M372.732,-215.284C380.767,-207.015 390.069,-197.444 398.386,-188.885"/>
<ellipse fill="none" stroke="#64efb9" cx="369.684" cy="-218.42" rx="4.00002" ry="4.00002"/>
<polygon fill="#64efb9" stroke="#64efb9" points="398.417,-188.854 408.613,-184.819 401.902,-185.268 405.386,-181.683 405.386,-181.683 405.386,-181.683 401.902,-185.268 402.159,-178.547 398.417,-188.854 398.417,-188.854"/>
</g>
<!-- User&#45;&gt;UserTestSequenceAssignment -->
<g id="edge22" class="edge"><title>User&#45;&gt;UserTestSequenceAssignment</title>
<path fill="none" stroke="#9d6596" d="M323.874,-222.22C302.243,-211.843 272.229,-197.444 247.722,-185.687"/>
<ellipse fill="none" stroke="#9d6596" cx="327.788" cy="-224.097" rx="4.00002" ry="4.00002"/>
<polygon fill="#9d6596" stroke="#9d6596" points="247.643,-185.65 240.574,-177.267 243.135,-183.487 238.627,-181.324 238.627,-181.324 238.627,-181.324 243.135,-183.487 236.681,-185.382 247.643,-185.65 247.643,-185.65"/>
</g>
</g>
</svg>
